<svg xmlns="http://www.w3.org/2000/svg" version="1.1" xmlns:xlink="http://www.w3.org/1999/xlink" xmlns:svgjs="http://svgjs.dev/svgjs" width="1440" height="560" preserveAspectRatio="none" viewBox="0 0 1440 560"><g mask="url(&quot;#SvgjsMask1371&quot;)" fill="none"><rect width="1440" height="560" x="0" y="0" fill="rgba(255, 255, 255, 1)"></rect><path d="M 0,208 C 36,189.4 108,104 180,115 C 252,126 288,268.6 360,263 C 432,257.4 468,89.2 540,87 C 612,84.8 648,250.6 720,252 C 792,253.4 828,92.4 900,94 C 972,95.6 1008,263.4 1080,260 C 1152,256.6 1188,80.2 1260,77 C 1332,73.8 1404,210.6 1440,244L1440 560L0 560z" fill="rgba(255, 255, 255, 1)"></path><path d="M 0,550 C 96,499 288,303.2 480,295 C 672,286.8 768,496.8 960,509 C 1152,521.2 1344,386.6 1440,356L1440 560L0 560z" fill="rgba(69, 69, 69, 1)"></path></g><defs><mask id="SvgjsMask1371"><rect width="1440" height="560" fill="#ffffff"></rect></mask></defs></svg>