<svg xmlns="http://www.w3.org/2000/svg" version="1.1" xmlns:xlink="http://www.w3.org/1999/xlink" xmlns:svgjs="http://svgjs.dev/svgjs" width="1440" height="560" preserveAspectRatio="none" viewBox="0 0 1440 560"><g mask="url(&quot;#SvgjsMask1319&quot;)" fill="none"><rect width="1440" height="560" x="0" y="0" fill="rgba(255, 255, 255, 1)"></rect><path d="M 0,193 C 57.6,159.6 172.8,21.4 288,26 C 403.2,30.6 460.8,214.8 576,216 C 691.2,217.2 748.8,40.2 864,32 C 979.2,23.8 1036.8,167.4 1152,175 C 1267.2,182.6 1382.4,91 1440,70L1440 560L0 560z" fill="rgba(69, 69, 69, 1)"></path><path d="M 0,300 C 96,337.6 288,475.4 480,488 C 672,500.6 768,373.4 960,363 C 1152,352.6 1344,421.4 1440,436L1440 560L0 560z" fill="rgba(69, 69, 69, 1)"></path></g><defs><mask id="SvgjsMask1319"><rect width="1440" height="560" fill="#ffffff"></rect></mask></defs></svg>