<svg xmlns="http://www.w3.org/2000/svg" version="1.1" xmlns:xlink="http://www.w3.org/1999/xlink" xmlns:svgjs="http://svgjs.dev/svgjs" width="1440" height="560" preserveAspectRatio="none" viewBox="0 0 1440 560"><g mask="url(&quot;#SvgjsMask1004&quot;)" fill="none"><rect width="1440" height="560" x="0" y="0" fill="rgba(255, 255, 255, 1)"></rect><path d="M 0,122 C 57.6,148.8 172.8,270.8 288,256 C 403.2,241.2 460.8,62.4 576,48 C 691.2,33.6 748.8,169.8 864,184 C 979.2,198.2 1036.8,102.2 1152,119 C 1267.2,135.8 1382.4,238.2 1440,268L1440 560L0 560z" fill="rgba(76, 76, 76, 1)"></path><path d="M 0,486 C 96,471.4 288,411.6 480,413 C 672,414.4 768,506.2 960,493 C 1152,479.8 1344,376.2 1440,347L1440 560L0 560z" fill="rgba(193, 193, 193, 1)"></path></g><defs><mask id="SvgjsMask1004"><rect width="1440" height="560" fill="#ffffff"></rect></mask></defs></svg>